<?xml version="1.0" encoding="iso-8859-1"?>
<!-- Generator: Adobe Illustrator 18.0.0, SVG Export Plug-In . SVG Version: 6.00 Build 0)  -->
<!DOCTYPE svg PUBLIC "-//W3C//DTD SVG 1.1//EN" "http://www.w3.org/Graphics/SVG/1.1/DTD/svg11.dtd">
<svg version="1.1" id="Capa_1" xmlns="http://www.w3.org/2000/svg" xmlns:xlink="http://www.w3.org/1999/xlink" x="0px" y="0px"
	 viewBox="0 0 297.504 297.504" style="enable-background:new 0 0 297.504 297.504;" xml:space="preserve">
<g id="XMLID_28_">
	<g>
		<path style="fill:#D5BA2F;" d="M177.852,22.63v9.57c0,1.04-0.84,1.88-1.88,1.88H48.022c-1.04,0-1.88-0.84-1.88-1.88v-9.57
			c0-1.03,0.84-1.88,1.88-1.88h127.95C177.012,20.75,177.852,21.6,177.852,22.63z"/>
		<path d="M297.232,218.58c0.22,28.51-14.92,64.54-43.43,75.16c-15.71,5.86-30.63,3.04-37.4,1.15c-3.73,1.04-9.93,2.36-17.37,2.36
			c-6.08,0-12.98-0.88-20.04-3.51c-1.85-0.69-3.64-1.49-5.38-2.38c-0.06,0-0.13,0-0.2,0H50.582c-18.42,0-33.4-14.98-33.4-33.4V103.7
			c0-7.12,1.1-13.97,3.1-20.44c-8.46-4.86-14.72-11.21-18.17-16.15c-1.7-2.44-2.26-5.51-1.53-8.39c0.73-2.89,2.69-5.31,5.35-6.65
			l21.63-10.81c-1.23-2.77-1.92-5.84-1.92-9.06v-9.57c0-12.34,10.03-22.38,22.38-22.38h127.95c12.34,0,22.38,10.04,22.38,22.38v9.57
			c0,3.22-0.69,6.29-1.92,9.06l21.63,10.81c3.27,1.64,5.43,4.9,5.65,8.56c0.22,3.65-1.53,7.15-4.59,9.16
			c-0.65,0.44-6.9,4.5-16.96,8.9c3,7.76,4.65,16.19,4.65,25.01v65.24c2.28-15.84,8.21-34.34,22.46-47.56
			c4.15-3.85,10.63-3.61,14.48,0.54c3.85,4.15,3.61,10.64-0.54,14.49c-11.04,10.24-15.14,26.16-16.52,39.29
			c10.92-6.14,25.72-9.14,43.88-2.7C287.332,178.94,297.042,195.56,297.232,218.58z M246.652,274.53
			c18.79-7,30.24-34.41,30.07-55.78c-0.05-6.58-1.42-22.32-13.01-26.43c-26.16-9.28-37.84,11.31-38.33,12.19
			c-1.8,3.28-5.24,5.31-8.98,5.31s-7.18-2.03-8.98-5.31c-0.99-1.73-8.93-14.59-25.41-14.59c-3.84,0-8.14,0.7-12.92,2.4
			c-11.59,4.11-12.96,19.85-13.02,26.43c-0.17,21.37,11.29,48.78,30.08,55.78c13.33,4.97,26.41,0.1,26.54,0.05
			c2.41-0.95,5.02-0.94,7.43,0C220.492,274.72,233.452,279.45,246.652,274.53z M190.642,61.29l-13.41-6.71H46.762l-18.75,9.37
			c6.76,4.65,17.05,8.66,30.1,4.45c19.72-6.36,43.57-6.45,72.91-0.27C154.222,73.01,176.192,67.14,190.642,61.29z M186.312,169.58
			v-30.43H37.682v118.81c0,7.12,5.79,12.9,12.9,12.9h100.73c-10.48-15.4-15.87-35.19-15.74-52.28c0.19-23.02,9.9-39.64,26.66-45.58
			C171.082,169.86,179.122,168.97,186.312,169.58z M186.312,118.64V103.7c0-6.4-1.24-12.5-3.47-18.1
			c-15.76,4.41-35.34,6.95-56.04,2.59c-25.75-5.42-46.16-5.52-62.4-0.28c-6,1.94-11.72,2.77-17.09,2.77c-2.65,0-5.22-0.21-7.7-0.58
			c-1.25,4.32-1.93,8.88-1.93,13.6v14.94H186.312z M177.852,32.2v-9.57c0-1.03-0.84-1.88-1.88-1.88H48.022
			c-1.04,0-1.88,0.85-1.88,1.88v9.57c0,1.04,0.84,1.88,1.88,1.88h127.95C177.012,34.08,177.852,33.24,177.852,32.2z"/>
		<path style="fill:#C45A57;" d="M276.722,218.75c0.17,21.37-11.28,48.78-30.07,55.78c-13.2,4.92-26.16,0.19-26.53,0.05
			c-2.41-0.94-5.02-0.95-7.43,0c-0.13,0.05-13.21,4.92-26.54-0.05c-18.79-7-30.25-34.41-30.08-55.78
			c0.06-6.58,1.43-22.32,13.02-26.43c4.78-1.7,9.08-2.4,12.92-2.4c16.48,0,24.42,12.86,25.41,14.59c1.8,3.28,5.24,5.31,8.98,5.31
			s7.18-2.03,8.98-5.31c0.49-0.88,12.17-21.47,38.33-12.19C275.302,196.43,276.672,212.17,276.722,218.75z"/>
		<path style="fill:#D5BA2F;" d="M177.232,54.58l13.41,6.71c-14.45,5.85-36.42,11.72-59.62,6.84c-29.34-6.18-53.19-6.09-72.91,0.27
			c-13.05,4.21-23.34,0.2-30.1-4.45l18.75-9.37H177.232z"/>
		<path style="fill:#D75E29;" d="M186.312,139.15v30.43c-7.19-0.61-15.23,0.28-24.08,3.42c-16.76,5.94-26.47,22.56-26.66,45.58
			c-0.13,17.09,5.26,36.88,15.74,52.28H50.582c-7.11,0-12.9-5.78-12.9-12.9V139.15H186.312z"/>
	</g>
	<g>
	</g>
</g>
<g>
</g>
<g>
</g>
<g>
</g>
<g>
</g>
<g>
</g>
<g>
</g>
<g>
</g>
<g>
</g>
<g>
</g>
<g>
</g>
<g>
</g>
<g>
</g>
<g>
</g>
<g>
</g>
<g>
</g>
</svg>
